<svg xmlns="http://www.w3.org/2000/svg" viewBox="0 0 96 96" role="img" aria-label="Cedar Creek Farms logo">
  <rect width="96" height="96" rx="24" fill="#173b2f"/>
  <path d="M48 16c-12 10-22 22-22 36 0 13 10 24 22 24s22-11 22-24c0-14-10-26-22-36Z" fill="#eaf3ed"/>
  <path d="M48 24v54" stroke="#c7a25d" stroke-width="5" stroke-linecap="round"/>
  <path d="M48 47c-10 0-18-5-23-12 12-2 20 2 23 12Zm0 8c10 0 18-5 23-12-12-2-20 2-23 12Z" fill="#1f533f"/>
  <path d="M31 76h34" stroke="#c7a25d" stroke-width="5" stroke-linecap="round"/>
</svg>
